# Contributed by Janne V. Kujala <jvk@iki.fi>
# $Id: 4x6.bdf,v 1.5 2002-08-26 18:05:49+01 mgk25 Rel $
# Send bug reports to Markus Kuhn <http://www.cl.cam.ac.uk/~mgk25/>

name: Fixed Medium 6
family: Fixed
foundry: Misc
copyright: Public domain font.  Share and enjoy.
point-size: 6
weight: medium
dpi: 75 75
spacing: character-cell
x-height: 4
cap-height: 5
offset: 0 -1
encoding: unicode
default-char: 0
converter: monobit v0.11
source-name: 4x6.bdf
source-format: BDF v2.1
bdf.FONTNAME-REGISTRY: ""
bdf.DESTINATION: 1
bdf.-XMBDFED-INFO: "Edited with xmbdfed 4.3."

u+0000:
char0:
    @.@.
    ....
    @.@.
    ....
    @.@.
    ....

u+0020:
space:
    ....
    ....
    ....
    ....
    ....
    ....

u+0021:
exclam:
    .@..
    .@..
    .@..
    ....
    .@..
    ....

u+0022:
quotedbl:
    @.@.
    @.@.
    ....
    ....
    ....
    ....

u+0023:
numbersign:
    @.@.
    @@@@
    @.@.
    @@@@
    @.@.
    ....

u+0024:
dollar:
    .@..
    @@@.
    @@..
    ..@.
    @@@.
    .@..

u+0025:
percent:
    @...
    ..@.
    .@..
    @...
    ..@.
    ....

u+0026:
ampersand:
    .@..
    @.@.
    .@..
    @.@.
    .@.@
    ....

u+0027:
quotesingle:
    .@..
    .@..
    ....
    ....
    ....
    ....

u+0028:
parenleft:
    ..@.
    .@..
    .@..
    .@..
    .@..
    ..@.

u+0029:
parenright:
    @...
    .@..
    .@..
    .@..
    .@..
    @...

u+002a:
asterisk:
    @.@.
    .@..
    @@@.
    .@..
    @.@.
    ....

u+002b:
plus:
    .@..
    .@..
    @@@.
    .@..
    .@..
    ....

u+002c:
comma:
    ....
    ....
    ....
    ....
    .@..
    @...

u+002d:
hyphen:
    ....
    ....
    @@@.
    ....
    ....
    ....

u+002e:
period:
    ....
    ....
    ....
    ....
    .@..
    ....

u+002f:
slash:
    ..@.
    ..@.
    .@..
    @...
    @...
    ....

u+0030:
zero:
    .@..
    @.@.
    @@@.
    @.@.
    .@..
    ....

u+0031:
one:
    .@..
    @@..
    .@..
    .@..
    @@@.
    ....

u+0032:
two:
    .@..
    @.@.
    ..@.
    .@..
    @@@.
    ....

u+0033:
three:
    @@@.
    ..@.
    .@..
    ..@.
    @@..
    ....

u+0034:
four:
    @.@.
    @.@.
    @@@.
    ..@.
    ..@.
    ....

u+0035:
five:
    @@@.
    @...
    @@..
    ..@.
    @@..
    ....

u+0036:
six:
    .@@.
    @...
    @@..
    @.@.
    .@..
    ....

u+0037:
seven:
    @@@.
    ..@.
    .@..
    @...
    @...
    ....

u+0038:
eight:
    .@@.
    @.@.
    .@..
    @.@.
    @@..
    ....

u+0039:
nine:
    .@..
    @.@.
    .@@.
    ..@.
    @@..
    ....

u+003a:
colon:
    ....
    .@..
    ....
    ....
    .@..
    ....

u+003b:
semicolon:
    ....
    .@..
    ....
    ....
    .@..
    @...

u+003c:
less:
    ..@.
    .@..
    @...
    .@..
    ..@.
    ....

u+003d:
equal:
    ....
    @@@.
    ....
    @@@.
    ....
    ....

u+003e:
greater:
    @...
    .@..
    ..@.
    .@..
    @...
    ....

u+003f:
question:
    @@..
    ..@.
    .@..
    ....
    .@..
    ....

u+0040:
at:
    .@@.
    @.@.
    @.@.
    @...
    .@@.
    ....

u+0041:
A:
    .@..
    @.@.
    @@@.
    @.@.
    @.@.
    ....

u+0042:
B:
    @@..
    @.@.
    @@..
    @.@.
    @@..
    ....

u+0043:
C:
    .@..
    @.@.
    @...
    @.@.
    .@..
    ....

u+0044:
D:
    @@..
    @.@.
    @.@.
    @.@.
    @@..
    ....

u+0045:
E:
    @@@.
    @...
    @@..
    @...
    @@@.
    ....

u+0046:
F:
    @@@.
    @...
    @@..
    @...
    @...
    ....

u+0047:
G:
    .@@.
    @...
    @.@.
    @.@.
    .@@.
    ....

u+0048:
H:
    @.@.
    @.@.
    @@@.
    @.@.
    @.@.
    ....

u+0049:
I:
    @@@.
    .@..
    .@..
    .@..
    @@@.
    ....

u+004a:
J:
    ..@.
    ..@.
    ..@.
    @.@.
    .@..
    ....

u+004b:
K:
    @.@.
    @.@.
    @@..
    @.@.
    @.@.
    ....

u+004c:
L:
    @...
    @...
    @...
    @...
    @@@.
    ....

u+004d:
M:
    @.@.
    @@@.
    @@@.
    @.@.
    @.@.
    ....

u+004e:
N:
    ..@.
    @.@.
    @@@.
    @.@.
    @...
    ....

u+004f:
O:
    .@..
    @.@.
    @.@.
    @.@.
    .@..
    ....

u+0050:
P:
    @@..
    @.@.
    @@..
    @...
    @...
    ....

u+0051:
Q:
    .@..
    @.@.
    @.@.
    @.@.
    .@..
    ..@.

u+0052:
R:
    @@..
    @.@.
    @@..
    @.@.
    @.@.
    ....

u+0053:
S:
    .@@.
    @...
    .@..
    ..@.
    @@..
    ....

u+0054:
T:
    @@@.
    .@..
    .@..
    .@..
    .@..
    ....

u+0055:
U:
    @.@.
    @.@.
    @.@.
    @.@.
    @@@.
    ....

u+0056:
V:
    @.@.
    @.@.
    @.@.
    @@@.
    .@..
    ....

u+0057:
W:
    @.@.
    @.@.
    @@@.
    @@@.
    @.@.
    ....

u+0058:
X:
    @.@.
    @.@.
    .@..
    @.@.
    @.@.
    ....

u+0059:
Y:
    @.@.
    @.@.
    .@..
    .@..
    .@..
    ....

u+005a:
Z:
    @@@.
    ..@.
    .@..
    @...
    @@@.
    ....

u+005b:
bracketleft:
    .@@.
    .@..
    .@..
    .@..
    .@@.
    ....

u+005c:
backslash:
    @...
    @...
    .@..
    ..@.
    ..@.
    ....

u+005d:
bracketright:
    @@..
    .@..
    .@..
    .@..
    @@..
    ....

u+005e:
asciicircum:
    .@..
    @.@.
    ....
    ....
    ....
    ....

u+005f:
underscore:
    ....
    ....
    ....
    ....
    ....
    @@@.

u+0060:
grave:
    .@..
    ..@.
    ....
    ....
    ....
    ....

u+0061:
a:
    ....
    .@@.
    @.@.
    @.@.
    .@@.
    ....

u+0062:
b:
    @...
    @@..
    @.@.
    @.@.
    @@..
    ....

u+0063:
c:
    ....
    .@@.
    @...
    @...
    .@@.
    ....

u+0064:
d:
    ..@.
    .@@.
    @.@.
    @.@.
    .@@.
    ....

u+0065:
e:
    ....
    .@..
    @.@.
    @@..
    .@@.
    ....

u+0066:
f:
    ..@.
    .@..
    @@@.
    .@..
    .@..
    ....

u+0067:
g:
    ....
    .@@.
    @.@.
    .@@.
    ..@.
    @@..

u+0068:
h:
    @...
    @@..
    @.@.
    @.@.
    @.@.
    ....

u+0069:
i:
    .@..
    ....
    @@..
    .@..
    @@@.
    ....

u+006a:
j:
    ..@.
    ....
    ..@.
    ..@.
    ..@.
    @@..

u+006b:
k:
    @...
    @.@.
    @@..
    @.@.
    @.@.
    ....

u+006c:
l:
    @@..
    .@..
    .@..
    .@..
    @@@.
    ....

u+006d:
m:
    ....
    @.@.
    @@@.
    @.@.
    @.@.
    ....

u+006e:
n:
    ....
    @@..
    @.@.
    @.@.
    @.@.
    ....

u+006f:
o:
    ....
    .@..
    @.@.
    @.@.
    .@..
    ....

u+0070:
p:
    ....
    @@..
    @.@.
    @@..
    @...
    @...

u+0071:
q:
    ....
    .@@.
    @.@.
    @.@.
    .@@.
    ..@.

u+0072:
r:
    ....
    @.@.
    @@..
    @...
    @...
    ....

u+0073:
s:
    ....
    .@@.
    @@..
    ..@.
    @@..
    ....

u+0074:
t:
    .@..
    @@@.
    .@..
    .@..
    ..@.
    ....

u+0075:
u:
    ....
    @.@.
    @.@.
    @.@.
    .@@.
    ....

u+0076:
v:
    ....
    @.@.
    @.@.
    @.@.
    .@..
    ....

u+0077:
w:
    ....
    @.@.
    @.@.
    @@@.
    @.@.
    ....

u+0078:
x:
    ....
    @.@.
    .@..
    .@..
    @.@.
    ....

u+0079:
y:
    ....
    @.@.
    @.@.
    .@@.
    ..@.
    @@..

u+007a:
z:
    ....
    @@@.
    ..@.
    .@..
    @@@.
    ....

u+007b:
braceleft:
    ..@.
    .@..
    @@..
    .@..
    .@..
    ..@.

u+007c:
bar:
    .@..
    .@..
    .@..
    .@..
    .@..
    ....

u+007d:
braceright:
    @...
    .@..
    .@@.
    .@..
    .@..
    @...

u+007e:
asciitilde:
    .@.@
    @.@.
    ....
    ....
    ....
    ....

u+00a0:
space:
    ....
    ....
    ....
    ....
    ....
    ....

u+00a1:
exclamdown:
    .@..
    ....
    .@..
    .@..
    .@..
    ....

u+00a2:
cent:
    .@..
    @@@.
    @...
    @@@.
    .@..
    ....

u+00a3:
sterling:
    ..@.
    .@..
    .@@.
    .@..
    @.@.
    ....

u+00a4:
currency:
    ....
    @..@
    .@@.
    .@@.
    @..@
    ....

u+00a5:
yen:
    @.@.
    .@..
    @@@.
    .@..
    .@..
    ....

u+00a6:
brokenbar:
    .@..
    .@..
    ....
    .@..
    .@..
    ....

u+00a7:
section:
    .@@.
    @@..
    @.@.
    .@@.
    ..@.
    @@..

u+00a8:
dieresis:
    @.@.
    ....
    ....
    ....
    ....
    ....

u+00a9:
copyright:
    .@@.
    @..@
    @@.@
    @@.@
    @..@
    .@@.

u+00aa:
ordfeminine:
    .@@.
    @.@.
    .@@.
    ....
    @@@.
    ....

u+00ab:
guillemotleft:
    ....
    .@.@
    @.@.
    .@.@
    ....
    ....

u+00ac:
logicalnot:
    ....
    ....
    @@@.
    ..@.
    ....
    ....

u+00ad:
hyphen:
    ....
    ....
    @@@.
    ....
    ....
    ....

u+00ae:
registered:
    .@@.
    @@@@
    @@.@
    .@@.
    ....
    ....

u+00af:
macron:
    @@@.
    ....
    ....
    ....
    ....
    ....

u+00b0:
degree:
    .@..
    @.@.
    .@..
    ....
    ....
    ....

u+00b1:
plusminus:
    .@..
    @@@.
    .@..
    ....
    @@@.
    ....

u+00b2:
twosuperior:
    @@..
    .@..
    @...
    @@..
    ....
    ....

u+00b3:
threesuperior:
    @@..
    .@..
    @...
    .@..
    @...
    ....

u+00b4:
acute:
    ..@.
    .@..
    ....
    ....
    ....
    ....

u+00b5:
mu:
    ....
    @.@.
    @.@.
    @.@.
    @@..
    @...

u+00b6:
paragraph:
    .@@@
    @@.@
    @@.@
    .@.@
    .@.@
    ....

u+00b7:
periodcentered:
    ....
    ....
    .@..
    ....
    ....
    ....

u+00b8:
cedilla:
    ....
    ....
    ....
    ..@.
    .@..
    ....

u+00b9:
onesuperior:
    .@..
    @@..
    .@..
    .@..
    ....
    ....

u+00ba:
ordmasculine:
    .@..
    @.@.
    .@..
    ....
    @@@.
    ....

u+00bb:
guillemotright:
    ....
    @.@.
    .@.@
    @.@.
    ....
    ....

u+00bc:
onequarter:
    @...
    @...
    @...
    .@.@
    .@@@
    ...@

u+00bd:
onehalf:
    @...
    @...
    @.@@
    ...@
    ..@.
    ..@@

u+00be:
threequarters:
    @@..
    .@..
    @...
    .@.@
    @.@@
    ...@

u+00bf:
questiondown:
    .@..
    ....
    .@..
    @...
    .@@.
    ....

u+00c0:
Agrave:
    @...
    .@..
    @.@.
    @@@.
    @.@.
    ....

u+00c1:
Aacute:
    ..@.
    .@..
    @.@.
    @@@.
    @.@.
    ....

u+00c2:
Acircumflex:
    @@..
    .@..
    @.@.
    @@@.
    @.@.
    ....

u+00c3:
Atilde:
    .@@.
    @@..
    @.@.
    @@@.
    @.@.
    ....

u+00c4:
Adieresis:
    @.@.
    .@..
    @.@.
    @@@.
    @.@.
    ....

u+00c5:
Aring:
    .@..
    .@..
    @.@.
    @@@.
    @.@.
    ....

u+00c6:
AE:
    .@@@
    @.@.
    @@@@
    @.@.
    @.@@
    ....

u+00c7:
Ccedilla:
    .@..
    @.@.
    @...
    @.@.
    .@..
    @...

u+00c8:
Egrave:
    @...
    @@@.
    @@..
    @...
    @@@.
    ....

u+00c9:
Eacute:
    ..@.
    @@@.
    @@..
    @...
    @@@.
    ....

u+00ca:
Ecircumflex:
    .@@.
    @@@.
    @@..
    @...
    @@@.
    ....

u+00cb:
Edieresis:
    @.@.
    @@@.
    @@..
    @...
    @@@.
    ....

u+00cc:
Igrave:
    @...
    @@@.
    .@..
    .@..
    @@@.
    ....

u+00cd:
Iacute:
    ..@.
    @@@.
    .@..
    .@..
    @@@.
    ....

u+00ce:
Icircumflex:
    .@..
    @@@.
    .@..
    .@..
    @@@.
    ....

u+00cf:
Idieresis:
    @.@.
    .@..
    .@..
    .@..
    @@@.
    ....

u+00d0:
Eth:
    @@@.
    .@.@
    @@.@
    .@.@
    @@@.
    ....

u+00d1:
Ntilde:
    .@.@
    @.@.
    @@@.
    @@@.
    @.@.
    ....

u+00d2:
Ograve:
    @...
    .@..
    @.@.
    @.@.
    .@..
    ....

u+00d3:
Oacute:
    ..@.
    .@..
    @.@.
    @.@.
    .@..
    ....

u+00d4:
Ocircumflex:
    .@..
    .@..
    @.@.
    @.@.
    .@..
    ....

u+00d5:
Otilde:
    .@@@
    @@@.
    @.@.
    @.@.
    .@..
    ....

u+00d6:
Odieresis:
    @.@.
    .@..
    @.@.
    @.@.
    .@..
    ....

u+00d7:
multiply:
    ....
    @.@.
    .@..
    @.@.
    ....
    ....

u+00d8:
Oslash:
    .@@.
    @.@.
    @@@.
    @.@.
    @@..
    ....

u+00d9:
Ugrave:
    @...
    .@..
    @.@.
    @.@.
    @@@.
    ....

u+00da:
Uacute:
    ..@.
    .@..
    @.@.
    @.@.
    @@@.
    ....

u+00db:
Ucircumflex:
    .@..
    ....
    @.@.
    @.@.
    @@@.
    ....

u+00dc:
Udieresis:
    @.@.
    ....
    @.@.
    @.@.
    @@@.
    ....

u+00dd:
Yacute:
    ..@.
    ....
    @.@.
    .@..
    .@..
    ....

u+00de:
Thorn:
    @...
    @@..
    @.@.
    @@..
    @...
    ....

u+00df:
germandbls:
    .@..
    @.@.
    @@..
    @.@.
    @@@.
    @...

u+00e0:
agrave:
    @...
    .@..
    .@@.
    @.@.
    .@@.
    ....

u+00e1:
aacute:
    ..@.
    .@..
    .@@.
    @.@.
    .@@.
    ....

u+00e2:
acircumflex:
    .@@.
    ....
    .@@.
    @.@.
    .@@.
    ....

u+00e3:
atilde:
    .@.@
    @.@.
    .@@.
    @.@.
    .@@.
    ....

u+00e4:
adieresis:
    @.@.
    ....
    .@@.
    @.@.
    .@@.
    ....

u+00e5:
aring:
    .@..
    ....
    .@@.
    @.@.
    .@@.
    ....

u+00e6:
ae:
    ....
    .@@@
    @.@@
    @.@.
    .@@@
    ....

u+00e7:
ccedilla:
    ....
    .@..
    @.@.
    @...
    .@@.
    .@..

u+00e8:
egrave:
    @...
    .@..
    @.@.
    @@..
    .@@.
    ....

u+00e9:
eacute:
    ..@.
    .@..
    @.@.
    @@..
    .@@.
    ....

u+00ea:
ecircumflex:
    @@..
    .@..
    @.@.
    @@..
    .@@.
    ....

u+00eb:
edieresis:
    @.@.
    .@..
    @.@.
    @@..
    .@@.
    ....

u+00ec:
igrave:
    @...
    .@..
    .@..
    .@..
    @@@.
    ....

u+00ed:
iacute:
    ..@.
    @@..
    .@..
    .@..
    @@@.
    ....

u+00ee:
icircumflex:
    .@..
    @.@.
    .@..
    .@..
    @@@.
    ....

u+00ef:
idieresis:
    @.@.
    ....
    @@..
    .@..
    @@@.
    ....

u+00f0:
eth:
    @.@.
    .@..
    .@@.
    @.@.
    .@..
    ....

u+00f1:
ntilde:
    .@.@
    @.@.
    @@..
    @.@.
    @.@.
    ....

u+00f2:
ograve:
    @...
    .@..
    .@..
    @.@.
    .@..
    ....

u+00f3:
oacute:
    ..@.
    .@..
    .@..
    @.@.
    .@..
    ....

u+00f4:
ocircumflex:
    .@..
    ....
    .@..
    @.@.
    .@..
    ....

u+00f5:
otilde:
    @@@.
    ....
    .@..
    @.@.
    .@..
    ....

u+00f6:
odieresis:
    @.@.
    ....
    .@..
    @.@.
    .@..
    ....

u+00f7:
divide:
    .@..
    ....
    @@@.
    ....
    .@..
    ....

u+00f8:
oslash:
    ....
    .@@.
    @.@.
    @.@.
    @@..
    ....

u+00f9:
ugrave:
    @...
    .@..
    @.@.
    @.@.
    .@@.
    ....

u+00fa:
uacute:
    ..@.
    .@..
    @.@.
    @.@.
    .@@.
    ....

u+00fb:
ucircumflex:
    .@..
    ....
    @.@.
    @.@.
    .@@.
    ....

u+00fc:
udieresis:
    @.@.
    ....
    @.@.
    @.@.
    .@@.
    ....

u+00fd:
yacute:
    ..@.
    .@..
    @.@.
    @@@.
    ..@.
    @@..

u+00fe:
thorn:
    @...
    @...
    @@..
    @.@.
    @@..
    @...

u+00ff:
ydieresis:
    @.@.
    ....
    @.@.
    @@@.
    ..@.
    @@..

u+0100:
Amacron:
    @@@.
    .@..
    @.@.
    @@@.
    @.@.
    ....

u+0101:
amacron:
    @@@.
    ....
    .@@.
    @.@.
    .@@.
    ....

u+0102:
Abreve:
    @.@.
    .@..
    @.@.
    @@@.
    @.@.
    ....

u+0103:
abreve:
    @.@.
    .@..
    .@@.
    @.@.
    .@@.
    ....

u+0104:
Aogonek:
    ....
    .@..
    @.@.
    @@@.
    @.@.
    ..@.

u+0105:
aogonek:
    ....
    ....
    .@@.
    @.@.
    .@@.
    ..@.

u+0106:
Cacute:
    .@@.
    @.@.
    @...
    @.@.
    .@..
    ....

u+0107:
cacute:
    ..@.
    .@..
    @.@.
    @...
    .@@.
    ....

u+0108:
Ccircumflex:
    @@@.
    @.@.
    @...
    @.@.
    .@..
    ....

u+0109:
ccircumflex:
    .@@.
    ....
    .@@.
    @...
    .@@.
    ....

u+010a:
Cdotaccent:
    .@..
    @@@.
    @...
    @.@.
    .@..
    ....

u+010b:
cdotaccent:
    .@..
    ....
    .@@.
    @...
    .@@.
    ....

u+010c:
Ccaron:
    @@@.
    @.@.
    @...
    @.@.
    .@..
    ....

u+010d:
ccaron:
    @.@.
    .@..
    .@@.
    @...
    .@@.
    ....

u+010e:
Dcaron:
    @@@.
    @@..
    @.@.
    @.@.
    @@..
    ....

u+010f:
dcaron:
    ..@@
    ..@.
    .@@.
    @.@.
    .@@.
    ....

u+0110:
Dcroat:
    @@..
    @.@.
    @@@.
    @.@.
    @@..
    ....

u+0111:
dcroat:
    .@@.
    ..@.
    .@@.
    @.@.
    .@@.
    ....

u+0112:
Emacron:
    @@@.
    @@@.
    @@..
    @...
    @@@.
    ....

u+0113:
emacron:
    @@@.
    .@..
    @.@.
    @@..
    .@@.
    ....

u+0114:
Ebreve:
    @.@.
    @@@.
    @@..
    @...
    @@@.
    ....

u+0115:
ebreve:
    @.@.
    .@..
    @.@.
    @@..
    .@@.
    ....

u+0116:
Edotaccent:
    .@..
    @@@.
    @@..
    @...
    @@@.
    ....

u+0117:
edotaccent:
    .@..
    .@..
    @.@.
    @@..
    .@@.
    ....

u+0118:
Eogonek:
    @@@.
    @...
    @@..
    @...
    @@@.
    ..@.

u+0119:
eogonek:
    ....
    .@..
    @.@.
    @@..
    .@@.
    .@..

u+011a:
Ecaron:
    @.@.
    @@@.
    @@..
    @...
    @@@.
    ....

u+011b:
ecaron:
    @.@.
    .@..
    @.@.
    @@..
    .@@.
    ....

u+011c:
Gcircumflex:
    .@@.
    .@@.
    @...
    @.@.
    .@@.
    ....

u+011d:
gcircumflex:
    .@@.
    .@@.
    @.@.
    .@@.
    ..@.
    @@..

u+011e:
Gbreve:
    @.@.
    .@@.
    @...
    @.@.
    .@@.
    ....

u+011f:
gbreve:
    @.@.
    .@..
    @.@.
    .@@.
    ..@.
    @@..

u+0120:
Gdotaccent:
    .@..
    .@@.
    @...
    @.@.
    .@@.
    ....

u+0121:
gdotaccent:
    .@..
    .@@.
    @.@.
    .@@.
    ..@.
    @@..

u+0122:
Gcommaaccent:
    .@@.
    @...
    @.@.
    @.@.
    .@..
    .@..

u+0123:
gcommaaccent:
    .@..
    .@@.
    @.@.
    .@@.
    ..@.
    @@..

u+0124:
Hcircumflex:
    .@@.
    ....
    @.@.
    @@@.
    @.@.
    ....

u+0125:
hcircumflex:
    .@..
    @.@.
    @@..
    @.@.
    @.@.
    ....

u+0126:
Hbar:
    @.@.
    @@@.
    @.@.
    @@@.
    @.@.
    ....

u+0127:
hbar:
    @...
    @@..
    @@..
    @.@.
    @.@.
    ....

u+0128:
Itilde:
    .@.@
    @.@.
    .@..
    .@..
    @@@.
    ....

u+0129:
itilde:
    .@.@
    @.@.
    @@..
    .@..
    @@@.
    ....

u+012a:
Imacron:
    @@@.
    ....
    @@@.
    .@..
    @@@.
    ....

u+012b:
imacron:
    @@@.
    ....
    @@..
    .@..
    @@@.
    ....

u+012c:
Ibreve:
    @.@.
    .@..
    @@@.
    .@..
    @@@.
    ....

u+012d:
ibreve:
    @.@.
    .@..
    @@..
    .@..
    @@@.
    ....

u+012e:
Iogonek:
    @@@.
    .@..
    .@..
    .@..
    @@@.
    ..@.

u+012f:
iogonek:
    .@..
    ....
    @@..
    .@..
    @@@.
    ..@.

u+0130:
Idotaccent:
    .@..
    ....
    @@@.
    .@..
    @@@.
    ....

u+0131:
dotlessi:
    ....
    ....
    @@..
    .@..
    @@@.
    ....

u+0132:
IJ:
    @...
    @.@.
    @.@.
    @.@.
    ..@.
    .@@.

u+0133:
ij:
    @.@.
    ....
    @.@.
    @.@.
    ..@.
    .@..

u+0134:
Jcircumflex:
    .@@.
    @.@.
    ..@.
    @.@.
    .@..
    ....

u+0135:
jcircumflex:
    .@..
    @.@.
    ....
    ..@.
    ..@.
    @@..

u+0136:
Kcommaaccent:
    @.@.
    @.@.
    @@..
    @.@.
    ..@.
    .@..

u+0137:
kcommaaccent:
    @...
    @.@.
    @@..
    @.@.
    ..@.
    .@..

u+0138:
kgreenlandic:
    ....
    @.@.
    @.@.
    @@..
    @.@.
    ....

u+0139:
Lacute:
    .@..
    @...
    @...
    @...
    @@@.
    ....

u+013a:
lacute:
    ..@.
    @@..
    .@..
    .@..
    @@@.
    ....

u+013b:
Lcommaaccent:
    @...
    @...
    @...
    @...
    @@@.
    ..@.

u+013c:
lcommaaccent:
    @@..
    .@..
    .@..
    .@..
    @@@.
    ..@.

u+013d:
Lcaron:
    @.@.
    @@..
    @...
    @...
    @@@.
    ....

u+013e:
lcaron:
    @@.@
    .@..
    .@..
    .@..
    @@@.
    ....

u+013f:
Ldot:
    @...
    @...
    @.@.
    @...
    @@@.
    ....

u+0140:
ldot:
    @@..
    .@..
    .@.@
    .@..
    @@@.
    ....

u+0141:
Lslash:
    @...
    @.@.
    @@..
    @...
    @@@.
    ....

u+0142:
lslash:
    @@..
    .@@.
    @@..
    .@..
    @@@.
    ....

u+0143:
Nacute:
    ..@.
    @.@.
    @@@.
    @.@.
    @...
    ....

u+0144:
nacute:
    ..@.
    .@..
    @@..
    @.@.
    @.@.
    ....

u+0145:
Ncommaaccent:
    ..@.
    @.@.
    @@@.
    @.@.
    @...
    ..@.

u+0146:
ncommaaccent:
    ....
    @@..
    @.@.
    @.@.
    ....
    .@..

u+0147:
Ncaron:
    ..@.
    @.@.
    @@@.
    @.@.
    @...
    ....

u+0148:
ncaron:
    @.@.
    .@..
    @@..
    @.@.
    @.@.
    ....

u+0149:
napostrophe:
    @...
    ....
    @@..
    @.@.
    @.@.
    ....

u+014a:
Eng:
    @.@.
    @@@.
    @@@.
    @.@.
    ..@.
    .@..

u+014b:
eng:
    ....
    @@..
    @.@.
    @.@.
    ..@.
    .@..

u+014c:
Omacron:
    @@@.
    .@..
    @.@.
    @.@.
    .@..
    ....

u+014d:
omacron:
    @@@.
    ....
    .@..
    @.@.
    .@..
    ....

u+014e:
Obreve:
    @.@.
    .@..
    @.@.
    @.@.
    .@..
    ....

u+014f:
obreve:
    @.@.
    .@..
    .@..
    @.@.
    .@..
    ....

u+0150:
Ohungarumlaut:
    @.@.
    .@..
    @.@.
    @.@.
    .@..
    ....

u+0151:
ohungarumlaut:
    @.@.
    @.@.
    .@..
    @.@.
    .@..
    ....

u+0152:
OE:
    .@.@
    @.@.
    @.@@
    @.@.
    .@@@
    ....

u+0153:
oe:
    ....
    .@@@
    @.@@
    @.@.
    .@@@
    ....

u+0154:
Racute:
    ..@.
    @@..
    @.@.
    @@..
    @.@.
    ....

u+0155:
racute:
    ..@.
    ....
    @.@.
    @@..
    @...
    ....

u+0156:
Rcommaaccent:
    @@..
    @.@.
    @@..
    @.@.
    ....
    .@..

u+0157:
rcommaaccent:
    ....
    @.@.
    @@..
    @...
    @...
    ..@.

u+0158:
Rcaron:
    .@@.
    @@..
    @.@.
    @@..
    @.@.
    ....

u+0159:
rcaron:
    .@@.
    ....
    @.@.
    @@..
    @...
    ....

u+015a:
Sacute:
    ..@.
    .@@.
    @@..
    ..@.
    @@..
    ....

u+015b:
sacute:
    ..@.
    .@@.
    @@..
    ..@.
    @@..
    ....

u+015c:
Scircumflex:
    .@@.
    .@@.
    @@..
    ..@.
    @@..
    ....

u+015d:
scircumflex:
    .@@.
    .@@.
    @@..
    ..@.
    @@..
    ....

u+015e:
Scedilla:
    .@@.
    @...
    .@..
    ..@.
    @@..
    .@..

u+015f:
scedilla:
    ....
    .@@.
    @@..
    ..@.
    @@@.
    .@..

u+0160:
Scaron:
    .@@.
    .@@.
    @@..
    ..@.
    @@@.
    ....

u+0161:
scaron:
    .@@.
    .@@.
    @@..
    ..@.
    @@..
    ....

u+0162:
Tcommaaccent:
    @@@.
    .@..
    .@..
    .@..
    ..@.
    .@..

u+0163:
tcommaaccent:
    .@..
    @@@.
    .@..
    .@..
    ..@.
    .@..

u+0164:
Tcaron:
    @.@.
    .@..
    @@@.
    .@..
    .@..
    ....

u+0165:
tcaron:
    @.@.
    .@..
    @@@.
    .@..
    ..@.
    ....

u+0166:
Tbar:
    @@@.
    .@..
    @@@.
    .@..
    .@..
    ....

u+0167:
tbar:
    @@@.
    .@..
    @@@.
    .@..
    ..@.
    ....

u+0168:
Utilde:
    @@.@
    ..@.
    @.@.
    @.@.
    @@@.
    ....

u+0169:
utilde:
    .@.@
    @.@.
    ....
    @.@.
    .@@.
    ....

u+016a:
Umacron:
    @@@.
    ....
    @.@.
    @.@.
    @@@.
    ....

u+016b:
umacron:
    @@@.
    ....
    @.@.
    @.@.
    .@@.
    ....

u+016c:
Ubreve:
    @.@.
    .@..
    @.@.
    @.@.
    @@@.
    ....

u+016d:
ubreve:
    @.@.
    .@..
    ....
    @.@.
    .@@.
    ....

u+016e:
Uring:
    .@..
    ....
    @.@.
    @.@.
    @@@.
    ....

u+016f:
uring:
    .@..
    ....
    @.@.
    @.@.
    .@@.
    ....

u+0170:
Uhungarumlaut:
    @.@.
    ....
    @.@.
    @.@.
    @@@.
    ....

u+0171:
uhungarumlaut:
    @.@.
    ....
    @.@.
    @.@.
    .@@.
    ....

u+0172:
Uogonek:
    ....
    @.@.
    @.@.
    @.@.
    .@..
    ..@.

u+0173:
uogonek:
    ....
    @.@.
    @.@.
    @.@.
    .@@.
    .@..

u+0174:
Wcircumflex:
    .@..
    @.@.
    @.@.
    @@@.
    @.@.
    ....

u+0175:
wcircumflex:
    .@..
    ....
    @.@.
    @@@.
    @@@.
    ....

u+0176:
Ycircumflex:
    .@@.
    ....
    @.@.
    .@..
    .@..
    ....

u+0177:
ycircumflex:
    .@..
    ....
    @.@.
    .@..
    @...
    ....

u+0178:
Ydieresis:
    @.@.
    ....
    @.@.
    .@..
    .@..
    ....

u+0179:
Zacute:
    .@..
    @@@.
    .@..
    @...
    @@@.
    ....

u+017a:
zacute:
    .@..
    @@@.
    .@..
    @...
    @@@.
    ....

u+017b:
Zdotaccent:
    .@..
    @@@.
    .@..
    @...
    @@@.
    ....

u+017c:
zdotaccent:
    .@..
    @@@.
    .@..
    @...
    @@@.
    ....

u+017d:
Zcaron:
    @.@.
    @@@.
    .@..
    @...
    @@@.
    ....

u+017e:
zcaron:
    @.@.
    @@@.
    .@..
    @...
    @@@.
    ....

u+017f:
longs:
    ..@.
    .@..
    @@..
    .@..
    .@..
    ....

u+018f:
uni018F:
    ....
    @@..
    .@@.
    @.@.
    .@..
    ....

u+0192:
florin:
    ..@.
    .@..
    @@@.
    .@..
    .@..
    @...

u+0218:
Scommaaccent:
    .@@.
    @...
    .@..
    ..@.
    @@..
    .@..

u+0219:
scommaaccent:
    ....
    .@@.
    @@..
    ..@.
    @@@.
    .@..

u+021a:
Tcommaaccent:
    @@@.
    .@..
    .@..
    .@..
    ....
    .@..

u+021b:
tcommaaccent:
    .@..
    @@@.
    .@..
    .@..
    ..@.
    .@..

u+0259:
uni0259:
    ....
    @@..
    .@@.
    @.@.
    .@..
    ....

u+02c6:
circumflex:
    .@..
    @.@.
    ....
    ....
    ....
    ....

u+02c7:
caron:
    @.@.
    .@..
    ....
    ....
    ....
    ....

u+02c9:
macron:
    @@@.
    ....
    ....
    ....
    ....
    ....

u+02d8:
breve:
    @..@
    .@@.
    ....
    ....
    ....
    ....

u+02d9:
dotaccent:
    .@..
    ....
    ....
    ....
    ....
    ....

u+02da:
ring:
    .@..
    @.@.
    .@..
    ....
    ....
    ....

u+02db:
ogonek:
    ....
    ....
    ....
    .@..
    @...
    @@..

u+02dc:
tilde:
    .@.@
    @.@.
    ....
    ....
    ....
    ....

u+02dd:
hungarumlaut:
    @.@.
    @.@.
    ....
    ....
    ....
    ....

u+0374:
uni0374:
    ..@.
    .@..
    ....
    ....
    ....
    ....

u+0375:
uni0375:
    ....
    ....
    ....
    ....
    .@..
    @...

u+037a:
uni037A:
    ....
    ....
    ....
    ....
    .@..
    .@@.

u+037e:
uni037E:
    ....
    .@..
    ....
    ....
    .@..
    @...

u+0384:
tonos:
    ..@.
    .@..
    ....
    ....
    ....
    ....

u+0385:
dieresistonos:
    @.@@
    .@..
    ....
    ....
    ....
    ....

u+0386:
Alphatonos:
    @@..
    @.@.
    @@@.
    @.@.
    @.@.
    ....

u+0387:
anoteleia:
    ....
    ....
    .@..
    ....
    ....
    ....

u+0388:
Epsilontonos:
    @@@.
    @@..
    .@@.
    .@..
    .@@.
    ....

u+0389:
Etatonos:
    @.@.
    ..@.
    @@@.
    @.@.
    @.@.
    ....

u+038a:
Iotatonos:
    @@@.
    @@..
    .@..
    .@..
    @@@.
    ....

u+038c:
Omicrontonos:
    @@..
    @.@.
    @.@.
    @.@.
    .@..
    ....

u+038e:
Upsilontonos:
    @.@.
    @.@.
    @@..
    .@..
    .@..
    ....

u+038f:
Omegatonos:
    @@..
    @.@.
    @.@.
    .@..
    @.@.
    ....

u+0390:
iotadieresistonos:
    @.@@
    .@..
    ....
    .@..
    ..@.
    ....

u+0391:
Alpha:
    .@..
    @.@.
    @@@.
    @.@.
    @.@.
    ....

u+0392:
Beta:
    @@..
    @.@.
    @@..
    @.@.
    @@..
    ....

u+0393:
Gamma:
    @@@.
    @...
    @...
    @...
    @...
    ....

u+0394:
Delta:
    .@..
    .@..
    @.@.
    @.@.
    @@@.
    ....

u+0395:
Epsilon:
    @@@.
    @...
    @@..
    @...
    @@@.
    ....

u+0396:
Zeta:
    @@@.
    ..@.
    .@..
    @...
    @@@.
    ....

u+0397:
Eta:
    @.@.
    @.@.
    @@@.
    @.@.
    @.@.
    ....

u+0398:
Theta:
    .@..
    @.@.
    @@@.
    @.@.
    .@..
    ....

u+0399:
Iota:
    @@@.
    .@..
    .@..
    .@..
    @@@.
    ....

u+039a:
Kappa:
    @.@.
    @.@.
    @@..
    @.@.
    @.@.
    ....

u+039b:
Lambda:
    .@..
    .@..
    @.@.
    @.@.
    @.@.
    ....

u+039c:
Mu:
    @.@.
    @@@.
    @.@.
    @.@.
    @.@.
    ....

u+039d:
Nu:
    ..@.
    @.@.
    @@@.
    @.@.
    @...
    ....

u+039e:
Xi:
    @@@.
    ....
    .@..
    ....
    @@@.
    ....

u+039f:
Omicron:
    .@..
    @.@.
    @.@.
    @.@.
    .@..
    ....

u+03a0:
Pi:
    @@@.
    @.@.
    @.@.
    @.@.
    @.@.
    ....

u+03a1:
Rho:
    @@..
    @.@.
    @@..
    @...
    @...
    ....

u+03a3:
Sigma:
    @@@.
    @...
    .@..
    @...
    @@@.
    ....

u+03a4:
Tau:
    @@@.
    .@..
    .@..
    .@..
    .@..
    ....

u+03a5:
Upsilon:
    @.@.
    @.@.
    .@..
    .@..
    .@..
    ....

u+03a6:
Phi:
    .@..
    @@@.
    @.@.
    @@@.
    .@..
    ....

u+03a7:
Chi:
    @.@.
    @.@.
    .@..
    @.@.
    @.@.
    ....

u+03a8:
Psi:
    @.@.
    @@@.
    @@@.
    .@..
    .@..
    ....

u+03a9:
Omega:
    .@..
    @.@.
    @.@.
    .@..
    @.@.
    ....

u+03aa:
Iotadieresis:
    @.@.
    ....
    @@@.
    .@..
    @@@.
    ....

u+03ab:
Upsilondieresis:
    @.@.
    ....
    @.@.
    .@..
    .@..
    ....

u+03ac:
alphatonos:
    .@..
    @...
    .@@.
    @.@.
    .@@.
    ....

u+03ad:
epsilontonos:
    ..@.
    @@..
    .@..
    @...
    .@@.
    ....

u+03ae:
etatonos:
    ..@.
    .@..
    @@..
    @.@.
    ..@.
    .@..

u+03af:
iotatonos:
    ..@.
    ....
    .@..
    .@..
    ..@.
    ....

u+03b0:
upsilondieresistonos:
    @.@@
    .@..
    @.@.
    @.@.
    @@..
    ....

u+03b1:
alpha:
    ....
    .@.@
    @.@.
    @.@.
    .@.@
    ....

u+03b2:
beta:
    .@..
    @.@.
    @@..
    @.@.
    @@..
    ....

u+03b3:
gamma:
    ....
    @.@.
    .@@.
    .@..
    .@..
    ....

u+03b4:
delta:
    .@@.
    @...
    .@..
    @.@.
    .@..
    ....

u+03b5:
epsilon:
    ....
    @@@.
    @@..
    @...
    .@@.
    ....

u+03b6:
zeta:
    @@@.
    .@..
    @...
    @@@.
    ..@.
    .@..

u+03b7:
eta:
    ....
    @@..
    @.@.
    @.@.
    ..@.
    .@..

u+03b8:
theta:
    .@..
    @.@.
    @@@.
    @.@.
    .@..
    ....

u+03b9:
iota:
    ....
    .@..
    .@..
    .@..
    ..@.
    ....

u+03ba:
kappa:
    ....
    @.@.
    @.@.
    @@..
    @.@.
    ....

u+03bb:
lambda:
    @@..
    ..@.
    .@@.
    @.@.
    @.@.
    ....

u+03bc:
mu:
    ....
    @.@.
    @.@.
    @.@.
    @@..
    @...

u+03bd:
nu:
    ....
    @.@.
    @.@.
    .@@.
    .@..
    ....

u+03be:
xi:
    .@@.
    @.@.
    .@..
    @...
    .@@.
    ....

u+03bf:
omicron:
    ....
    .@..
    @.@.
    @.@.
    .@..
    ....

u+03c0:
pi:
    ....
    @@@.
    @.@.
    @.@.
    @.@.
    ....

u+03c1:
rho:
    ....
    .@..
    @.@.
    @.@.
    @@..
    @...

u+03c2:
sigma1:
    ....
    .@@.
    @...
    .@..
    @@..
    ....

u+03c3:
sigma:
    ....
    .@@.
    @@..
    @.@.
    .@..
    ....

u+03c4:
tau:
    ....
    @@@.
    .@..
    .@..
    ..@.
    ....

u+03c5:
upsilon:
    ....
    @...
    @.@.
    @.@.
    @@..
    ....

u+03c6:
phi:
    ....
    .@..
    @@@.
    @.@.
    .@..
    .@..

u+03c7:
chi:
    ....
    @.@.
    .@..
    .@@.
    @.@.
    ....

u+03c8:
psi:
    ....
    @.@.
    @@@.
    @@@.
    .@..
    ....

u+03c9:
omega:
    ....
    @.@.
    @.@.
    @@@.
    @@@.
    ....

u+03ca:
iotadieresis:
    @.@.
    ....
    .@..
    .@..
    ..@.
    ....

u+03cb:
upsilondieresis:
    @.@.
    ....
    @.@.
    @.@.
    @@..
    ....

u+03cc:
omicrontonos:
    ..@.
    .@..
    .@..
    @.@.
    .@..
    ....

u+03cd:
upsilontonos:
    ..@.
    ....
    @.@.
    @.@.
    @@..
    ....

u+03ce:
omegatonos:
    ..@.
    ....
    @.@.
    @@@.
    @@@.
    ....

u+0401:
afii10023:
    @.@.
    @@@.
    @@..
    @...
    @@@.
    ....

u+0402:
afii10051:
    @@@.
    @...
    @@..
    @.@.
    @.@.
    ....

u+0403:
afii10052:
    ..@.
    @@@.
    @...
    @...
    @...
    ....

u+0404:
afii10053:
    .@@.
    @...
    @@..
    @...
    .@@.
    ....

u+0405:
afii10054:
    .@@.
    @...
    .@..
    ..@.
    @@..
    ....

u+0406:
afii10055:
    @@@.
    .@..
    .@..
    .@..
    @@@.
    ....

u+0407:
afii10056:
    @.@.
    @@@.
    .@..
    .@..
    @@@.
    ....

u+0408:
afii10057:
    ..@.
    ..@.
    ..@.
    @.@.
    .@..
    ....

u+0409:
afii10058:
    @@@.
    .@@.
    @.@.
    @.@@
    @.@@
    ....

u+040a:
afii10059:
    @.@.
    @.@.
    @@@.
    @.@@
    @.@@
    ....

u+040b:
afii10060:
    @@..
    @...
    @@..
    @.@.
    @.@.
    ....

u+040c:
afii10061:
    ..@.
    @...
    @.@.
    @@..
    @.@.
    ....

u+040e:
afii10062:
    @.@.
    .@..
    ....
    @.@.
    .@..
    @...

u+040f:
afii10145:
    @.@.
    @.@.
    @.@.
    @.@.
    @@@.
    .@..

u+0410:
afii10017:
    .@..
    @.@.
    @@@.
    @.@.
    @.@.
    ....

u+0411:
afii10018:
    @@@.
    @...
    @@..
    @.@.
    @@..
    ....

u+0412:
afii10019:
    @@..
    @.@.
    @@..
    @.@.
    @@..
    ....

u+0413:
afii10020:
    @@@.
    @...
    @...
    @...
    @...
    ....

u+0414:
afii10021:
    @@@.
    .@@.
    @.@.
    @.@.
    @@@.
    @.@.

u+0415:
afii10022:
    @@@.
    @...
    @@..
    @...
    @@@.
    ....

u+0416:
afii10024:
    @.@.
    @@@.
    .@..
    @@@.
    @.@.
    ....

u+0417:
afii10025:
    @@..
    ..@.
    .@..
    ..@.
    @@..
    ....

u+0418:
afii10026:
    @...
    @.@.
    @@@.
    @.@.
    ..@.
    ....

u+0419:
afii10027:
    .@@.
    @...
    @.@.
    @@@.
    @.@.
    ..@.

u+041a:
afii10028:
    @.@.
    @.@.
    @@..
    @.@.
    @.@.
    ....

u+041b:
afii10029:
    .@@.
    @.@.
    @.@.
    @.@.
    @.@.
    ....

u+041c:
afii10030:
    @.@.
    @@@.
    @.@.
    @.@.
    @.@.
    ....

u+041d:
afii10031:
    @.@.
    @.@.
    @@@.
    @.@.
    @.@.
    ....

u+041e:
afii10032:
    .@..
    @.@.
    @.@.
    @.@.
    .@..
    ....

u+041f:
afii10033:
    @@@.
    @.@.
    @.@.
    @.@.
    @.@.
    ....

u+0420:
afii10034:
    @@..
    @.@.
    @@..
    @...
    @...
    ....

u+0421:
afii10035:
    .@..
    @.@.
    @...
    @.@.
    .@..
    ....

u+0422:
afii10036:
    @@@.
    .@..
    .@..
    .@..
    .@..
    ....

u+0423:
afii10037:
    @.@.
    @.@.
    @.@.
    .@..
    .@..
    @...

u+0424:
afii10038:
    .@..
    @@@.
    @.@.
    @@@.
    .@..
    ....

u+0425:
afii10039:
    @.@.
    @.@.
    .@..
    @.@.
    @.@.
    ....

u+0426:
afii10040:
    @.@.
    @.@.
    @.@.
    @.@.
    @@@.
    ....

u+0427:
afii10041:
    @.@.
    @.@.
    .@@.
    ..@.
    ..@.
    ....

u+0428:
afii10042:
    @.@.
    @.@.
    @@@.
    @@@.
    @@@.
    ....

u+0429:
afii10043:
    @.@.
    @.@.
    @@@.
    @@@.
    @@@@
    ...@

u+042a:
afii10044:
    @@..
    .@..
    .@@.
    .@.@
    .@@.
    ....

u+042b:
afii10045:
    @..@
    @..@
    @@.@
    @.@@
    @@.@
    ....

u+042c:
afii10046:
    @...
    @...
    @@..
    @.@.
    @@..
    ....

u+042d:
afii10047:
    @@..
    ..@.
    .@@.
    ..@.
    @@..
    ....

u+042e:
afii10048:
    @.@.
    @@.@
    @@.@
    @@.@
    @.@.
    ....

u+042f:
afii10049:
    .@@.
    @.@.
    .@@.
    @.@.
    @.@.
    ....

u+0430:
afii10065:
    ....
    .@@.
    @.@.
    @.@.
    .@@.
    ....

u+0431:
afii10066:
    .@@.
    @...
    @@@.
    @.@.
    .@..
    ....

u+0432:
afii10067:
    ....
    @@@.
    @@..
    @.@.
    @@..
    ....

u+0433:
afii10068:
    ....
    @@@.
    @...
    @...
    @...
    ....

u+0434:
afii10069:
    ....
    .@@.
    @.@.
    @.@.
    @@@.
    @.@.

u+0435:
afii10070:
    ....
    .@..
    @.@.
    @@..
    .@@.
    ....

u+0436:
afii10072:
    ....
    @.@@
    .@@.
    .@@.
    @.@@
    ....

u+0437:
afii10073:
    ....
    @@@.
    .@..
    ..@.
    @@..
    ....

u+0438:
afii10074:
    ....
    @.@.
    @@@.
    @@@.
    @.@.
    ....

u+0439:
afii10075:
    @.@.
    .@..
    @.@.
    @@@.
    @.@.
    ....

u+043a:
afii10076:
    ....
    @.@.
    @.@.
    @@..
    @.@.
    ....

u+043b:
afii10077:
    ....
    .@@.
    @.@.
    @.@.
    @.@.
    ....

u+043c:
afii10078:
    ....
    @.@.
    @@@.
    @.@.
    @.@.
    ....

u+043d:
afii10079:
    ....
    @.@.
    @@@.
    @.@.
    @.@.
    ....

u+043e:
afii10080:
    ....
    .@..
    @.@.
    @.@.
    .@..
    ....

u+043f:
afii10081:
    ....
    @@@.
    @.@.
    @.@.
    @.@.
    ....

u+0440:
afii10082:
    ....
    @@..
    @.@.
    @@..
    @...
    @...

u+0441:
afii10083:
    ....
    .@@.
    @...
    @...
    .@@.
    ....

u+0442:
afii10084:
    ....
    @@@.
    .@..
    .@..
    .@..
    ....

u+0443:
afii10085:
    ....
    @.@.
    @.@.
    .@@.
    ..@.
    @@..

u+0444:
afii10086:
    .@..
    .@..
    @.@.
    @.@.
    .@..
    .@..

u+0445:
afii10087:
    ....
    @.@.
    .@..
    .@..
    @.@.
    ....

u+0446:
afii10088:
    ....
    @.@.
    @.@.
    @.@.
    @@@.
    ..@.

u+0447:
afii10089:
    ....
    @.@.
    @.@.
    .@@.
    ..@.
    ....

u+0448:
afii10090:
    ....
    @.@.
    @@@.
    @@@.
    @@@.
    ....

u+0449:
afii10091:
    ....
    @.@.
    @@@.
    @@@.
    @@@@
    ...@

u+044a:
afii10092:
    ....
    @@..
    .@@.
    .@.@
    .@@.
    ....

u+044b:
afii10093:
    ....
    @..@
    @@.@
    @.@@
    @@.@
    ....

u+044c:
afii10094:
    ....
    @...
    @@..
    @.@.
    @@..
    ....

u+044d:
afii10095:
    ....
    @@..
    .@@.
    ..@.
    @@..
    ....

u+044e:
afii10096:
    ....
    @.@.
    @@.@
    @@.@
    @.@.
    ....

u+044f:
afii10097:
    ....
    .@@.
    @.@.
    .@@.
    @.@.
    ....

u+0451:
afii10071:
    @.@.
    .@..
    @.@.
    @@..
    .@@.
    ....

u+0452:
afii10099:
    @...
    @@..
    @...
    @@..
    @.@.
    ..@.

u+0453:
afii10100:
    ..@.
    .@..
    @@@.
    @...
    @...
    ....

u+0454:
afii10101:
    ....
    .@@.
    @@..
    @...
    .@@.
    ....

u+0455:
afii10102:
    ....
    .@@.
    @@..
    ..@.
    @@..
    ....

u+0456:
afii10103:
    .@..
    ....
    @@..
    .@..
    @@@.
    ....

u+0457:
afii10104:
    @.@.
    ....
    @@..
    .@..
    @@@.
    ....

u+0458:
afii10105:
    ..@.
    ....
    ..@.
    ..@.
    ..@.
    @@..

u+0459:
afii10106:
    ....
    .@@.
    @.@.
    @.@@
    @.@@
    ....

u+045a:
afii10107:
    ....
    @.@.
    @@@.
    @.@@
    @.@@
    ....

u+045b:
afii10108:
    @...
    @@..
    @...
    @@..
    @.@.
    ....

u+045c:
afii10109:
    ..@.
    @...
    @.@.
    @@..
    @.@.
    ....

u+045e:
afii10110:
    @.@.
    .@..
    ....
    @.@.
    .@..
    @...

u+045f:
afii10193:
    ....
    @.@.
    @.@.
    @.@.
    @@@.
    .@..

u+0490:
afii10050:
    ..@.
    @@@.
    @...
    @...
    @...
    ....

u+0491:
afii10098:
    ....
    ..@.
    @@@.
    @...
    @...
    ....

u+0492:
uni0492:
    .@@.
    .@..
    @@@.
    .@..
    .@..
    ....

u+0493:
uni0493:
    ....
    .@@.
    .@..
    @@@.
    .@..
    ....

u+05d0:
afii57664:
    ....
    @.@.
    .@@.
    @@..
    @.@.
    ....

u+05d1:
afii57665:
    ....
    @@@.
    ..@.
    ..@.
    @@@@
    ....

u+05d2:
afii57666:
    @...
    .@..
    .@..
    .@..
    @.@.
    ....

u+05d3:
afii57667:
    ....
    @@@.
    ..@.
    ..@.
    ..@.
    ....

u+05d4:
afii57668:
    @...
    @@@.
    ..@.
    @.@.
    @.@.
    ....

u+05d5:
afii57669:
    .@..
    ..@.
    ..@.
    ..@.
    ..@.
    ....

u+05d6:
afii57670:
    @...
    .@@.
    .@..
    .@..
    .@..
    ....

u+05d7:
afii57671:
    ....
    @@@.
    @.@.
    @.@.
    @.@.
    ....

u+05d8:
afii57672:
    @.@.
    @.@.
    @.@.
    @.@.
    @@..
    ....

u+05d9:
afii57673:
    @@..
    ..@.
    ..@.
    ....
    ....
    ....

u+05da:
afii57674:
    ....
    @@@.
    ..@.
    ..@.
    ..@.
    ..@.

u+05db:
afii57675:
    ....
    @@@.
    ..@.
    ..@.
    @@..
    ....

u+05dc:
afii57676:
    @...
    @@@.
    ..@.
    ..@.
    .@..
    ....

u+05dd:
afii57677:
    @...
    .@@.
    @.@.
    @.@.
    @@@.
    ....

u+05de:
afii57678:
    @...
    .@@.
    @.@.
    @.@.
    @.@.
    ....

u+05df:
afii57679:
    @...
    .@@.
    ..@.
    ..@.
    ..@.
    ....

u+05e0:
afii57680:
    .@..
    ..@.
    ..@.
    ..@.
    .@@.
    ....

u+05e1:
afii57681:
    @...
    .@@.
    @.@.
    @.@.
    .@..
    ....

u+05e2:
afii57682:
    @.@.
    @.@.
    @.@.
    .@@.
    @@..
    ....

u+05e3:
afii57683:
    ....
    @@@.
    @.@.
    ..@.
    ..@.
    ..@.

u+05e4:
afii57684:
    ....
    @@@.
    @.@.
    ..@.
    @@@.
    ....

u+05e5:
afii57685:
    ....
    @.@.
    @.@.
    @@..
    @...
    @...

u+05e6:
afii57686:
    ....
    @.@.
    .@..
    ..@.
    @@@.
    ....

u+05e7:
afii57687:
    ....
    @@@.
    ..@.
    @@..
    @...
    @...

u+05e8:
afii57688:
    ....
    @@..
    ..@.
    ..@.
    ..@.
    ....

u+05e9:
afii57689:
    ....
    @@@@
    @@.@
    @.@.
    @@@.
    ....

u+05ea:
afii57690:
    @...
    .@@.
    @.@.
    @.@.
    @.@.
    ....

u+1e02:
uni1E02:
    .@..
    @@@.
    @@..
    @.@.
    @@..
    ....

u+1e03:
uni1E03:
    @.@.
    @...
    @@..
    @.@.
    @@..
    ....

u+1e0a:
uni1E0A:
    .@..
    @@..
    @.@.
    @.@.
    @@..
    ....

u+1e0b:
uni1E0B:
    @.@.
    ..@.
    .@@.
    @.@.
    .@@.
    ....

u+1e1e:
uni1E1E:
    .@..
    @@@.
    @...
    @@..
    @...
    ....

u+1e1f:
uni1E1F:
    @...
    ..@.
    .@..
    @@@.
    .@..
    ....

u+1e40:
uni1E40:
    .@..
    ....
    @@@.
    @.@.
    @.@.
    ....

u+1e41:
uni1E41:
    .@..
    ....
    @.@.
    @@@.
    @.@.
    ....

u+1e56:
uni1E56:
    .@..
    @@..
    @.@.
    @@..
    @...
    ....

u+1e57:
uni1E57:
    .@..
    ....
    @@..
    @.@.
    @@..
    @...

u+1e60:
uni1E60:
    .@..
    @@@.
    @@..
    ..@.
    @@..
    ....

u+1e61:
uni1E61:
    .@..
    .@@.
    @@..
    ..@.
    @@..
    ....

u+1e6a:
uni1E6A:
    .@..
    @@@.
    .@..
    .@..
    .@..
    ....

u+1e6b:
uni1E6B:
    .@..
    ....
    .@..
    @@@.
    .@..
    ..@.

u+1e80:
Wgrave:
    @...
    ..@.
    @.@.
    @@@.
    @@@.
    ....

u+1e81:
wgrave:
    @...
    .@..
    @.@.
    @.@.
    @@@.
    ....

u+1e82:
Wacute:
    ..@.
    @...
    @.@.
    @@@.
    @@@.
    ....

u+1e83:
wacute:
    ..@.
    .@..
    @.@.
    @.@.
    @@@.
    ....

u+1e84:
Wdieresis:
    @.@.
    ....
    @.@.
    @@@.
    @@@.
    ....

u+1e85:
wdieresis:
    @.@.
    ....
    @.@.
    @@@.
    @@@.
    ....

u+1ef2:
Ygrave:
    @...
    ..@.
    @.@.
    .@..
    .@..
    ....

u+1ef3:
ygrave:
    @...
    .@..
    @.@.
    .@@.
    ..@.
    .@..

u+2010:
uni2010:
    ....
    ....
    .@@.
    ....
    ....
    ....

u+2011:
uni2011:
    ....
    ....
    .@@.
    ....
    ....
    ....

u+2012:
figuredash:
    ....
    ....
    @@@.
    ....
    ....
    ....

u+2013:
endash:
    ....
    ....
    @@@.
    ....
    ....
    ....

u+2014:
emdash:
    ....
    ....
    @@@@
    ....
    ....
    ....

u+2015:
afii00208:
    ....
    ....
    @@@@
    ....
    ....
    ....

u+2016:
uni2016:
    @.@.
    @.@.
    @.@.
    @.@.
    @.@.
    @.@.

u+2017:
underscoredbl:
    ....
    ....
    ....
    @@@@
    ....
    @@@@

u+2018:
quoteleft:
    ..@.
    .@..
    .@@.
    ....
    ....
    ....

u+2019:
quoteright:
    .@@.
    ..@.
    .@..
    ....
    ....
    ....

u+201a:
quotesinglbase:
    ....
    ....
    ....
    .@@.
    ..@.
    .@..

u+201b:
quotereversed:
    .@@.
    .@..
    ..@.
    ....
    ....
    ....

u+201c:
quotedblleft:
    .@.@
    @.@.
    @.@.
    ....
    ....
    ....

u+201d:
quotedblright:
    .@.@
    .@.@
    @.@.
    ....
    ....
    ....

u+201e:
quotedblbase:
    ....
    ....
    ....
    .@.@
    .@.@
    @.@.

u+201f:
uni201F:
    @.@.
    @.@.
    .@.@
    ....
    ....
    ....

u+2020:
dagger:
    .@..
    @@@.
    .@..
    .@..
    .@..
    ....

u+2021:
daggerdbl:
    .@..
    @@@.
    .@..
    @@@.
    .@..
    ....

u+2022:
bullet:
    ....
    .@..
    @@@.
    .@..
    ....
    ....

u+2023:
uni2023:
    ....
    @@..
    @@@.
    @@..
    ....
    ....

u+2024:
onedotenleader:
    ....
    ....
    ....
    ....
    .@..
    ....

u+2025:
twodotenleader:
    ....
    ....
    ....
    ....
    @.@.
    ....

u+2026:
ellipsis:
    ....
    ....
    ....
    ....
    @.@@
    ....

u+2027:
uni2027:
    ....
    ....
    .@..
    ....
    ....
    ....

u+2030:
perthousand:
    @...
    ..@.
    .@..
    @...
    ..@@
    ....

u+2039:
guilsinglleft:
    ....
    .@..
    @...
    .@..
    ....
    ....

u+203a:
guilsinglright:
    ....
    .@..
    ..@.
    .@..
    ....
    ....

u+203e:
uni203E:
    @@@@
    ....
    ....
    ....
    ....
    ....

u+207f:
nsuperior:
    ....
    @@..
    @.@.
    @.@.
    ....
    ....

u+20a7:
peseta:
    .@@.
    @@@@
    .@@.
    .@..
    .@..
    ....

u+20ac:
Euro:
    ..@.
    .@..
    @@@.
    .@..
    ..@.
    ....

u+2116:
afii61352:
    @@..
    @.@@
    @.@@
    @.@.
    @.@@
    ....

u+2122:
trademark:
    @@@.
    .@..
    ....
    @@@.
    @.@.
    ....

u+2126:
Omega:
    .@..
    @.@.
    @.@.
    .@..
    @.@.
    ....

u+2127:
uni2127:
    @.@.
    .@..
    @.@.
    @.@.
    .@..
    ....

u+215b:
oneeighth:
    @...
    @...
    @.@@
    ..@.
    .@.@
    ..@.

u+215c:
threeeighths:
    @@..
    .@..
    @.@@
    .@@.
    @@.@
    ..@.

u+215d:
fiveeighths:
    @@..
    @...
    .@@@
    @.@.
    .@.@
    ..@.

u+215e:
seveneighths:
    @@..
    .@..
    @.@@
    @.@.
    .@.@
    ..@.

u+2190:
arrowleft:
    ....
    .@..
    @@@@
    .@..
    ....
    ....

u+2191:
arrowup:
    ....
    .@..
    @@@.
    .@..
    .@..
    ....

u+2192:
arrowright:
    ....
    ..@.
    @@@@
    ..@.
    ....
    ....

u+2193:
arrowdown:
    ....
    .@..
    .@..
    @@@.
    .@..
    ....

u+2194:
arrowboth:
    ....
    .@.@
    @@@@
    .@.@
    ....
    ....

u+2195:
arrowupdn:
    .@..
    @@@.
    .@..
    @@@.
    .@..
    ....

u+2200:
universal:
    @.@.
    @.@.
    @@@.
    @.@.
    .@..
    ....

u+2201:
uni2201:
    .@..
    @.@.
    @...
    @.@.
    .@..
    ....

u+2202:
partialdiff:
    @@..
    ..@.
    .@@.
    @.@.
    .@..
    ....

u+2203:
existential:
    @@@.
    ..@.
    @@@.
    ..@.
    @@@.
    ....

u+2204:
uni2204:
    @@@@
    ..@.
    @@@.
    .@@.
    @@@.
    @...

u+2205:
emptyset:
    ..@.
    .@@.
    @.@.
    @.@.
    @@..
    @...

u+2206:
Delta:
    .@..
    .@..
    @.@.
    @.@.
    @@@.
    ....

u+2207:
gradient:
    @@@.
    @.@.
    @.@.
    .@..
    .@..
    ....

u+2208:
element:
    .@@.
    @...
    @@@.
    @...
    .@@.
    ....

u+2209:
notelement:
    .@@@
    @.@.
    @@@.
    @.@.
    .@@.
    .@..

u+220a:
uni220A:
    .@..
    @...
    @@..
    @...
    .@..
    ....

u+220b:
suchthat:
    @@..
    ..@.
    @@@.
    ..@.
    @@..
    ....

u+220c:
uni220C:
    @@.@
    ..@.
    @@@.
    .@@.
    @@..
    @...

u+220d:
uni220D:
    @...
    .@..
    @@..
    .@..
    @...
    ....

u+220e:
uni220E:
    @@..
    @@..
    @@..
    @@..
    @@..
    ....

u+220f:
product:
    @@@.
    @.@.
    @.@.
    @.@.
    @.@.
    ....

u+2210:
uni2210:
    @.@.
    @.@.
    @.@.
    @.@.
    @@@.
    ....

u+2211:
summation:
    @@@.
    @...
    .@..
    @...
    @@@.
    ....

u+2212:
minus:
    ....
    ....
    @@@.
    ....
    ....
    ....

u+2213:
uni2213:
    @@@.
    ....
    .@..
    @@@.
    .@..
    ....

u+2214:
uni2214:
    .@..
    ....
    .@..
    @@@.
    .@..
    ....

u+2215:
fraction:
    ..@.
    ..@.
    .@..
    @...
    @...
    ....

u+2216:
uni2216:
    @...
    @...
    .@..
    ..@.
    ..@.
    ....

u+2217:
asteriskmath:
    ..@.
    @.@.
    .@@@
    @@@.
    .@.@
    .@..

u+2218:
uni2218:
    ....
    .@..
    @.@.
    .@..
    ....
    ....

u+2219:
periodcentered:
    ....
    .@..
    @@@.
    .@..
    ....
    ....

u+221a:
radical:
    ..@@
    ..@.
    ..@.
    @.@.
    .@@.
    ....

u+221b:
uni221B:
    @@.@
    .@.@
    @@.@
    ...@
    .@.@
    ..@@

u+221c:
uni221C:
    @@.@
    @@.@
    .@.@
    ...@
    .@.@
    ..@@

u+221d:
proportional:
    ....
    ....
    .@.@
    @@@.
    .@.@
    ....

u+221e:
infinity:
    ....
    ..@.
    @@.@
    @.@@
    .@..
    ....

u+221f:
orthogonal:
    ....
    ....
    @...
    @...
    @@@.
    ....

u+2220:
angle:
    ....
    ..@.
    .@..
    @...
    @@@.
    ....

u+2221:
uni2221:
    ...@
    @.@.
    .@..
    @.@.
    @@@@
    ..@.

u+2222:
uni2222:
    @..@
    .@@.
    @.@.
    @.@.
    .@@.
    @..@

u+2223:
uni2223:
    .@..
    .@..
    .@..
    .@..
    .@..
    ....

u+2224:
uni2224:
    .@..
    .@@.
    .@..
    @@..
    .@..
    ....

u+2225:
uni2225:
    @.@.
    @.@.
    @.@.
    @.@.
    @.@.
    ....

u+2226:
uni2226:
    @.@.
    @.@@
    @@@.
    @.@.
    @.@.
    ....

u+2227:
logicaland:
    ....
    .@..
    .@..
    @.@.
    @.@.
    ....

u+2228:
logicalor:
    ....
    @.@.
    @.@.
    .@..
    .@..
    ....

u+2229:
intersection:
    ....
    .@..
    @.@.
    @.@.
    @.@.
    ....

u+222a:
union:
    ....
    @.@.
    @.@.
    @.@.
    .@..
    ....

u+222b:
integral:
    ..@.
    .@..
    .@..
    .@..
    .@..
    @...

u+222c:
uni222C:
    .@.@
    @.@.
    @.@.
    @.@.
    @.@.
    @...

u+222d:
uni222D:
    .@.@
    @@.@
    @@.@
    @@.@
    @@.@
    @.@.

u+222e:
uni222E:
    ..@.
    .@..
    @@@.
    @@@.
    .@..
    @...

u+222f:
uni222F:
    .@.@
    @.@.
    @@@.
    @@@.
    @.@.
    @...

u+2230:
uni2230:
    .@.@
    @@.@
    @@@@
    @@@@
    @@.@
    @.@.

u+2231:
uni2231:
    ..@.
    .@..
    @@@.
    .@.@
    .@..
    @...

u+2232:
uni2232:
    ..@.
    .@..
    @@@.
    @@..
    .@..
    @...

u+2233:
uni2233:
    ..@.
    .@..
    @@..
    @@@.
    .@..
    @...

u+2234:
therefore:
    ....
    ....
    .@..
    ....
    @.@.
    ....

u+2235:
uni2235:
    ....
    ....
    @.@.
    ....
    .@..
    ....

u+2236:
uni2236:
    ....
    ....
    .@..
    ....
    .@..
    ....

u+2237:
uni2237:
    ....
    ....
    @.@.
    ....
    @.@.
    ....

u+2238:
uni2238:
    ....
    .@..
    ....
    @@@.
    ....
    ....

u+2239:
uni2239:
    ....
    ....
    ..@.
    @@..
    ..@.
    ....

u+223a:
uni223A:
    @.@.
    ....
    @@@.
    ....
    @.@.
    ....

u+223b:
uni223B:
    ..@.
    ....
    .@.@
    @.@.
    ....
    .@..

u+223c:
similar:
    ....
    ....
    .@.@
    @.@.
    ....
    ....

u+223d:
uni223D:
    ....
    ....
    @.@.
    .@.@
    ....
    ....

u+223e:
uni223E:
    ....
    ....
    @@.@
    @.@@
    ....
    ....

u+223f:
uni223F:
    ....
    .@..
    .@.@
    @.@.
    ..@.
    ....

u+2240:
uni2240:
    .@..
    ..@.
    .@..
    .@..
    ..@.
    ....

u+2241:
uni2241:
    ...@
    ..@.
    @.@@
    @@.@
    .@..
    @...

u+2242:
uni2242:
    ....
    @@@.
    ....
    @.@.
    .@.@
    ....

u+2243:
uni2243:
    ....
    .@.@
    @.@.
    ....
    @@@.
    ....

u+2244:
uni2244:
    ..@.
    @@.@
    @.@@
    .@..
    @@@@
    .@..

u+2245:
congruent:
    .@.@
    @.@.
    ....
    @@@.
    ....
    @@@.

u+2246:
uni2246:
    .@.@
    @.@.
    ..@.
    @@@@
    .@..
    @@@@

u+2247:
uni2247:
    .@@@
    @.@.
    ..@.
    @@@@
    .@..
    @@@@

u+2248:
approxequal:
    .@.@
    @.@.
    ....
    .@.@
    @.@.
    ....

u+2249:
uni2249:
    .@@@
    @.@.
    .@..
    .@.@
    @@@.
    @...

u+224a:
uni224A:
    .@..
    @.@@
    .@..
    @.@@
    ....
    @@@@

u+224b:
uni224B:
    .@..
    @.@@
    .@..
    @.@@
    .@..
    @.@@

u+224c:
uni224C:
    @.@.
    .@.@
    ....
    @@@.
    ....
    @@@.

u+224d:
uni224D:
    @.@.
    .@..
    ....
    .@..
    @.@.
    ....

u+224e:
uni224E:
    .@..
    @.@.
    ....
    @.@.
    .@..
    ....

u+224f:
uni224F:
    .@..
    @.@.
    ....
    @@@.
    ....
    ....

u+2250:
uni2250:
    .@..
    ....
    @@@.
    ....
    @@@.
    ....

u+2251:
uni2251:
    .@..
    @@@.
    ....
    @@@.
    ....
    .@..

u+2252:
uni2252:
    @...
    @@@.
    ....
    @@@.
    ....
    ..@.

u+2253:
uni2253:
    ..@.
    @@@.
    ....
    @@@.
    ....
    @...

u+2254:
uni2254:
    ....
    @.@@
    ....
    @.@@
    ....
    ....

u+2255:
uni2255:
    ....
    @@.@
    ....
    @@.@
    ....
    ....

u+2256:
uni2256:
    ....
    @@@.
    .@..
    @@@.
    ....
    ....

u+2257:
uni2257:
    .@..
    @@@.
    ....
    @@@.
    ....
    ....

u+2258:
uni2258:
    .@..
    @@@.
    ....
    @@@.
    ....
    ....

u+2259:
uni2259:
    .@..
    @@@.
    ....
    @@@.
    ....
    ....

u+225a:
uni225A:
    @.@.
    @@@.
    ....
    @@@.
    ....
    ....

u+225b:
uni225B:
    .@..
    @@@.
    ....
    @@@.
    ....
    ....

u+225c:
uni225C:
    .@..
    @@@.
    ....
    @@@.
    ....
    ....

u+225d:
uni225D:
    .@..
    ....
    @@@.
    ....
    @@@.
    ....

u+225e:
uni225E:
    .@..
    ....
    @@@.
    ....
    @@@.
    ....

u+225f:
uni225F:
    .@..
    ....
    @@@.
    ....
    @@@.
    ....

u+2260:
notequal:
    ..@.
    @@@.
    .@..
    @@@.
    @...
    ....

u+2261:
equivalence:
    @@@.
    ....
    @@@.
    ....
    @@@.
    ....

u+2262:
uni2262:
    @@@.
    ..@.
    @@@.
    .@..
    @@@.
    @...

u+2263:
uni2263:
    @@@.
    ....
    @@@.
    ....
    @@@.
    ....

u+2264:
lessequal:
    ..@.
    .@..
    @@@.
    ....
    @@@.
    ....

u+2265:
greaterequal:
    @...
    .@..
    @@@.
    ....
    @@@.
    ....

u+2266:
uni2266:
    ..@.
    .@..
    @@@.
    ....
    @@@.
    ....

u+2267:
uni2267:
    @...
    .@..
    @@@.
    ....
    @@@.
    ....

u+2268:
uni2268:
    ....
    ..@.
    .@..
    @@@.
    ....
    ....

u+2269:
uni2269:
    ....
    @...
    .@..
    @@@.
    ....
    ....

u+226a:
uni226A:
    ....
    .@.@
    @.@.
    .@.@
    ....
    ....

u+226b:
uni226B:
    ....
    @.@.
    .@.@
    @.@.
    ....
    ....

u+226c:
uni226C:
    @.@.
    .@..
    @.@.
    .@..
    @.@.
    ....

u+226d:
uni226D:
    ..@.
    @@@.
    .@..
    @@@.
    @...
    ....

u+226e:
uni226E:
    ..@.
    .@@.
    @@..
    .@@.
    @...
    ....

u+226f:
uni226F:
    ..@.
    @@..
    .@@.
    @@..
    @...
    ....

u+2270:
uni2270:
    ..@.
    .@..
    @@@.
    .@..
    @@@.
    @...

u+2271:
uni2271:
    @.@.
    .@@.
    @@@.
    .@..
    @@@.
    @...

u+2272:
uni2272:
    ..@.
    .@..
    @@@.
    ....
    .@.@
    @.@.

u+2273:
uni2273:
    @...
    .@..
    @@@.
    ....
    @.@.
    .@.@

u+2276:
uni2276:
    .@@.
    @@..
    ..@.
    @...
    .@@.
    @@..

u+2277:
uni2277:
    @@..
    .@@.
    @...
    ..@.
    @@..
    .@@.

u+2278:
uni2278:
    .@@.
    @@..
    .@@.
    @@..
    .@@.
    @@..

u+2279:
uni2279:
    @@..
    .@@.
    @@..
    .@@.
    @@..
    .@@.

u+227a:
uni227A:
    ....
    ..@.
    @@..
    ..@.
    ....
    ....

u+227b:
uni227B:
    ....
    @...
    .@@.
    @...
    ....
    ....

u+227c:
uni227C:
    ..@.
    @@..
    ..@.
    ....
    @@@.
    ....

u+227d:
uni227D:
    @...
    .@@.
    @...
    ....
    @@@.
    ....

u+227e:
uni227E:
    ..@.
    @@..
    ..@.
    ....
    @.@.
    .@.@

u+227f:
uni227F:
    ..@.
    @@..
    ..@.
    ....
    @.@.
    .@.@

u+2280:
uni2280:
    .@..
    .@@.
    @@..
    .@@.
    .@..
    ....

u+2281:
uni2281:
    .@..
    @@..
    .@@.
    @@..
    .@..
    ....

u+2282:
propersubset:
    ....
    .@@.
    @...
    .@@.
    ....
    ....

u+2283:
propersuperset:
    ....
    @@..
    ..@.
    @@..
    ....
    ....

u+2284:
notsubset:
    .@..
    .@@.
    @@..
    .@@.
    .@..
    ....

u+2285:
uni2285:
    .@..
    @@..
    .@@.
    @@..
    .@..
    ....

u+2286:
reflexsubset:
    .@@.
    @...
    .@@.
    ....
    @@@.
    ....

u+2287:
reflexsuperset:
    @@..
    ..@.
    @@..
    ....
    @@@.
    ....

u+2288:
uni2288:
    .@@.
    @.@.
    .@@.
    .@..
    @@@.
    @...

u+2289:
uni2289:
    @@..
    .@@.
    @@..
    .@..
    @@@.
    .@..

u+228a:
uni228A:
    .@@.
    @...
    .@@.
    .@..
    @@@.
    @...

u+228b:
uni228B:
    @@..
    ..@.
    @@..
    .@..
    @@@.
    @...

u+2310:
revlogicalnot:
    ....
    ....
    @@@.
    @...
    ....
    ....

u+2320:
integraltp:
    ..@.
    .@..
    .@..
    .@..
    .@..
    .@..

u+2321:
integralbt:
    ..@.
    ..@.
    ..@.
    ..@.
    ..@.
    .@..

u+23ba:
uni23BA:
    @@@@
    ....
    ....
    ....
    ....
    ....

u+23bb:
uni23BB:
    ....
    @@@@
    ....
    ....
    ....
    ....

u+23bc:
uni23BC:
    ....
    ....
    ....
    @@@@
    ....
    ....

u+23bd:
uni23BD:
    ....
    ....
    ....
    ....
    ....
    @@@@

u+2409:
uni2409:
    @.@.
    @@@.
    @.@.
    .@@@
    ..@.
    ..@.

u+240a:
uni240A:
    @...
    @...
    @@@.
    .@@.
    .@..
    .@..

u+240b:
uni240B:
    @.@.
    @.@.
    .@..
    .@@@
    ..@.
    ..@.

u+240c:
uni240C:
    @@..
    @@..
    @...
    .@@.
    .@@.
    .@..

u+240d:
uni240D:
    @@@.
    @...
    @@@.
    .@.@
    .@@.
    .@.@

u+2423:
uni2423:
    ....
    ....
    ....
    ....
    @..@
    @@@@

u+2424:
uni2424:
    @@.@
    @.@@
    @..@
    ..@.
    ..@.
    ..@@

u+2500:
SF100000:
    ....
    ....
    ....
    @@@@
    ....
    ....

u+2501:
uni2501:
    ....
    ....
    @@@@
    @@@@
    ....
    ....

u+2502:
SF110000:
    .@..
    .@..
    .@..
    .@..
    .@..
    .@..

u+2503:
uni2503:
    .@@.
    .@@.
    .@@.
    .@@.
    .@@.
    .@@.

u+2504:
uni2504:
    ....
    ....
    ....
    @.@.
    ....
    ....

u+2505:
uni2505:
    ....
    ....
    @.@.
    @.@.
    ....
    ....

u+2506:
uni2506:
    .@..
    ....
    .@..
    ....
    .@..
    ....

u+2507:
uni2507:
    .@@.
    ....
    .@@.
    ....
    .@@.
    ....

u+2508:
uni2508:
    ....
    ....
    ....
    @.@.
    ....
    ....

u+2509:
uni2509:
    ....
    ....
    @.@.
    @.@.
    ....
    ....

u+250a:
uni250A:
    .@..
    ....
    .@..
    ....
    .@..
    ....

u+250b:
uni250B:
    .@@.
    ....
    .@@.
    ....
    .@@.
    ....

u+250c:
SF010000:
    ....
    ....
    ....
    .@@@
    .@..
    .@..

u+250d:
uni250D:
    ....
    ....
    .@@@
    .@@@
    .@..
    .@..

u+250e:
uni250E:
    ....
    ....
    ....
    .@@@
    .@@.
    .@@.

u+250f:
uni250F:
    ....
    ....
    .@@@
    .@@@
    .@@.
    .@@.

u+2510:
SF030000:
    ....
    ....
    ....
    @@..
    .@..
    .@..

u+2511:
uni2511:
    ....
    ....
    @@..
    @@..
    .@..
    .@..

u+2512:
uni2512:
    ....
    ....
    ....
    @@@.
    .@@.
    .@@.

u+2513:
uni2513:
    ....
    ....
    @@@.
    @@@.
    .@@.
    .@@.

u+2514:
SF020000:
    .@..
    .@..
    .@..
    .@@@
    ....
    ....

u+2515:
uni2515:
    .@..
    .@..
    .@@@
    .@@@
    ....
    ....

u+2516:
uni2516:
    .@@.
    .@@.
    .@@.
    .@@@
    ....
    ....

u+2517:
uni2517:
    .@@.
    .@@.
    .@@@
    .@@@
    ....
    ....

u+2518:
SF040000:
    .@..
    .@..
    .@..
    @@..
    ....
    ....

u+2519:
uni2519:
    .@..
    .@..
    @@..
    @@..
    ....
    ....

u+251a:
uni251A:
    .@@.
    .@@.
    .@@.
    @@@.
    ....
    ....

u+251b:
uni251B:
    .@@.
    .@@.
    @@@.
    @@@.
    ....
    ....

u+251c:
SF080000:
    .@..
    .@..
    .@..
    .@@@
    .@..
    .@..

u+251d:
uni251D:
    .@..
    .@..
    .@@@
    .@@@
    .@..
    .@..

u+251e:
uni251E:
    .@@.
    .@@.
    .@@.
    .@@@
    .@..
    .@..

u+251f:
uni251F:
    .@..
    .@..
    .@..
    .@@@
    .@@.
    .@@.

u+2520:
uni2520:
    .@@.
    .@@.
    .@@.
    .@@@
    .@@.
    .@@.

u+2521:
uni2521:
    .@@.
    .@@.
    .@@@
    .@@@
    .@..
    .@..

u+2522:
uni2522:
    .@..
    .@..
    .@@@
    .@@@
    .@@.
    .@@.

u+2523:
uni2523:
    .@@.
    .@@.
    .@@@
    .@@@
    .@@.
    .@@.

u+2524:
SF090000:
    .@..
    .@..
    .@..
    @@..
    .@..
    .@..

u+2525:
uni2525:
    .@..
    .@..
    @@..
    @@..
    .@..
    .@..

u+2526:
uni2526:
    .@@.
    .@@.
    .@@.
    @@@.
    .@..
    .@..

u+2527:
uni2527:
    .@..
    .@..
    .@..
    @@@.
    .@@.
    .@@.

u+2528:
uni2528:
    .@@.
    .@@.
    .@@.
    @@@.
    .@@.
    .@@.

u+2529:
uni2529:
    .@@.
    .@@.
    @@@.
    @@@.
    .@..
    .@..

u+252a:
uni252A:
    .@..
    .@..
    @@@.
    @@@.
    .@@.
    .@@.

u+252b:
uni252B:
    .@@.
    .@@.
    @@@.
    @@@.
    .@@.
    .@@.

u+252c:
SF060000:
    ....
    ....
    ....
    @@@@
    .@..
    .@..

u+252d:
uni252D:
    ....
    ....
    @@..
    @@@@
    .@..
    .@..

u+252e:
uni252E:
    ....
    ....
    .@@@
    @@@@
    .@..
    .@..

u+252f:
uni252F:
    ....
    ....
    @@@@
    @@@@
    .@..
    .@..

u+2530:
uni2530:
    ....
    ....
    ....
    @@@@
    .@@.
    .@@.

u+2531:
uni2531:
    ....
    ....
    @@@.
    @@@@
    .@@.
    .@@.

u+2532:
uni2532:
    ....
    ....
    .@@@
    @@@@
    .@@.
    .@@.

u+2533:
uni2533:
    ....
    ....
    @@@@
    @@@@
    .@@.
    .@@.

u+2534:
SF070000:
    .@..
    .@..
    .@..
    @@@@
    ....
    ....

u+2535:
uni2535:
    .@..
    .@..
    @@..
    @@@@
    ....
    ....

u+2536:
uni2536:
    .@..
    .@..
    .@@@
    @@@@
    ....
    ....

u+2537:
uni2537:
    .@..
    .@..
    @@@@
    @@@@
    ....
    ....

u+2538:
uni2538:
    .@@.
    .@@.
    .@@.
    @@@@
    ....
    ....

u+2539:
uni2539:
    .@@.
    .@@.
    @@@.
    @@@@
    ....
    ....

u+253a:
uni253A:
    .@@.
    .@@.
    .@@@
    @@@@
    ....
    ....

u+253b:
uni253B:
    .@@.
    .@@.
    @@@@
    @@@@
    ....
    ....

u+253c:
SF050000:
    .@..
    .@..
    .@..
    @@@@
    .@..
    .@..

u+253d:
uni253D:
    .@..
    .@..
    @@..
    @@@@
    .@..
    .@..

u+253e:
uni253E:
    .@..
    .@..
    .@@@
    @@@@
    .@..
    .@..

u+253f:
uni253F:
    .@..
    .@..
    @@@@
    @@@@
    .@..
    .@..

u+2540:
uni2540:
    .@@.
    .@@.
    .@@.
    @@@@
    .@..
    .@..

u+2541:
uni2541:
    .@..
    .@..
    .@..
    @@@@
    .@@.
    .@@.

u+2542:
uni2542:
    .@@.
    .@@.
    .@@.
    @@@@
    .@@.
    .@@.

u+2543:
uni2543:
    .@@.
    .@@.
    @@@.
    @@@@
    .@..
    .@..

u+2544:
uni2544:
    .@@.
    .@@.
    .@@@
    @@@@
    .@..
    .@..

u+2545:
uni2545:
    .@..
    .@..
    @@@.
    @@@@
    .@@.
    .@@.

u+2546:
uni2546:
    .@..
    .@..
    .@@@
    @@@@
    .@@.
    .@@.

u+2547:
uni2547:
    .@@.
    .@@.
    @@@@
    @@@@
    .@..
    .@..

u+2548:
uni2548:
    .@..
    .@..
    @@@@
    @@@@
    .@@.
    .@@.

u+2549:
uni2549:
    .@@.
    .@@.
    @@@.
    @@@@
    .@@.
    .@@.

u+254a:
uni254A:
    .@@.
    .@@.
    .@@@
    @@@@
    .@@.
    .@@.

u+254b:
uni254B:
    .@@.
    .@@.
    @@@@
    @@@@
    .@@.
    .@@.

u+254c:
uni254C:
    ....
    ....
    ....
    @.@.
    ....
    ....

u+254d:
uni254D:
    ....
    ....
    @.@.
    @.@.
    ....
    ....

u+254e:
uni254E:
    ....
    .@..
    .@..
    ....
    .@..
    .@..

u+254f:
uni254F:
    ....
    .@@.
    .@@.
    ....
    .@@.
    .@@.

u+2550:
SF430000:
    ....
    ....
    @@@@
    ....
    @@@@
    ....

u+2551:
SF240000:
    .@@.
    .@@.
    .@@.
    .@@.
    .@@.
    .@@.

u+2552:
SF510000:
    ....
    ....
    .@@@
    .@..
    .@@@
    .@..

u+2553:
SF520000:
    ....
    ....
    ....
    .@@@
    .@@.
    .@@.

u+2554:
SF390000:
    ....
    ....
    .@@@
    .@..
    .@@@
    .@@.

u+2555:
SF220000:
    ....
    ....
    @@..
    .@..
    @@..
    .@..

u+2556:
SF210000:
    ....
    ....
    ....
    @@@.
    .@@.
    .@@.

u+2557:
SF250000:
    ....
    ....
    @@@.
    ..@.
    @@@.
    .@@.

u+2558:
SF500000:
    .@..
    .@..
    .@@@
    .@..
    .@@@
    ....

u+2559:
SF490000:
    .@@.
    .@@.
    .@@.
    .@@@
    ....
    ....

u+255a:
SF380000:
    .@@.
    .@@.
    .@@@
    .@..
    .@@@
    ....

u+255b:
SF280000:
    .@..
    .@..
    @@..
    .@..
    @@..
    ....

u+255c:
SF270000:
    .@@.
    .@@.
    .@@.
    @@@.
    ....
    ....

u+255d:
SF260000:
    .@@.
    .@@.
    @@@.
    ..@.
    @@@.
    ....

u+255e:
SF360000:
    .@..
    .@..
    .@@@
    .@..
    .@@@
    .@..

u+255f:
SF370000:
    .@@.
    .@@.
    .@@.
    .@@@
    .@@.
    .@@.

u+2560:
SF420000:
    .@@.
    .@@.
    .@@@
    .@..
    .@@@
    .@@.

u+2561:
SF190000:
    .@..
    .@..
    @@..
    .@..
    @@..
    .@..

u+2562:
SF200000:
    .@@.
    .@@.
    .@@.
    @@@.
    .@@.
    .@@.

u+2563:
SF230000:
    .@@.
    .@@.
    @@@.
    ..@.
    @@@.
    .@@.

u+2564:
SF470000:
    ....
    ....
    @@@@
    ....
    @@@@
    .@..

u+2565:
SF480000:
    ....
    ....
    ....
    @@@@
    .@@.
    .@@.

u+2566:
SF410000:
    ....
    ....
    @@@@
    ....
    @@@@
    .@@.

u+2567:
SF450000:
    .@..
    .@..
    @@@@
    ....
    @@@@
    ....

u+2568:
SF460000:
    .@@.
    .@@.
    .@@.
    @@@@
    ....
    ....

u+2569:
SF400000:
    .@@.
    .@@.
    @@@@
    ....
    @@@@
    ....

u+256a:
SF540000:
    .@..
    .@..
    @@@@
    .@..
    @@@@
    .@..

u+256b:
SF530000:
    .@@.
    .@@.
    .@@.
    @@@@
    .@@.
    .@@.

u+256c:
SF440000:
    .@@.
    .@@.
    @@@@
    ....
    @@@@
    .@@.

u+256d:
uni256D:
    ....
    ....
    ....
    ..@@
    .@..
    .@..

u+256e:
uni256E:
    ....
    ....
    ....
    @...
    .@..
    .@..

u+256f:
uni256F:
    .@..
    .@..
    .@..
    @...
    ....
    ....

u+2570:
uni2570:
    .@..
    .@..
    .@..
    ..@@
    ....
    ....

u+2571:
uni2571:
    ...@
    ..@.
    ..@.
    .@..
    .@..
    @...

u+2572:
uni2572:
    @...
    .@..
    .@..
    ..@.
    ..@.
    ...@

u+2573:
uni2573:
    @..@
    @..@
    .@@.
    .@@.
    @..@
    @..@

u+2574:
uni2574:
    ....
    ....
    ....
    @@..
    ....
    ....

u+2575:
uni2575:
    .@..
    .@..
    .@..
    .@..
    ....
    ....

u+2576:
uni2576:
    ....
    ....
    ....
    .@@@
    ....
    ....

u+2577:
uni2577:
    ....
    ....
    ....
    .@..
    .@..
    .@..

u+2578:
uni2578:
    ....
    ....
    @@..
    @@..
    ....
    ....

u+2579:
uni2579:
    .@@.
    .@@.
    .@@.
    .@@.
    ....
    ....

u+257a:
uni257A:
    ....
    ....
    .@@@
    .@@@
    ....
    ....

u+257b:
uni257B:
    ....
    ....
    ....
    .@@.
    .@@.
    .@@.

u+257c:
uni257C:
    ....
    ....
    ..@@
    @@@@
    ....
    ....

u+257d:
uni257D:
    .@..
    .@..
    .@..
    .@@.
    .@@.
    .@@.

u+257e:
uni257E:
    ....
    ....
    @@..
    @@@@
    ....
    ....

u+257f:
uni257F:
    .@@.
    .@@.
    .@@.
    .@@.
    .@..
    .@..

u+2580:
upblock:
    @@@@
    @@@@
    @@@@
    ....
    ....
    ....

u+2581:
uni2581:
    ....
    ....
    ....
    ....
    ....
    @@@@

u+2582:
uni2582:
    ....
    ....
    ....
    ....
    ....
    @@@@

u+2583:
uni2583:
    ....
    ....
    ....
    ....
    @@@@
    @@@@

u+2584:
dnblock:
    ....
    ....
    ....
    @@@@
    @@@@
    @@@@

u+2585:
uni2585:
    ....
    ....
    ....
    @@@@
    @@@@
    @@@@

u+2586:
uni2586:
    ....
    ....
    @@@@
    @@@@
    @@@@
    @@@@

u+2587:
uni2587:
    ....
    @@@@
    @@@@
    @@@@
    @@@@
    @@@@

u+2588:
block:
    @@@@
    @@@@
    @@@@
    @@@@
    @@@@
    @@@@

u+2589:
uni2589:
    @@@@
    @@@@
    @@@@
    @@@@
    @@@@
    @@@@

u+258a:
uni258A:
    @@@.
    @@@.
    @@@.
    @@@.
    @@@.
    @@@.

u+258b:
uni258B:
    @@@.
    @@@.
    @@@.
    @@@.
    @@@.
    @@@.

u+258c:
lfblock:
    @@..
    @@..
    @@..
    @@..
    @@..
    @@..

u+258d:
uni258D:
    @@..
    @@..
    @@..
    @@..
    @@..
    @@..

u+258e:
uni258E:
    @...
    @...
    @...
    @...
    @...
    @...

u+258f:
uni258F:
    @...
    @...
    @...
    @...
    @...
    @...

u+2590:
rtblock:
    ..@@
    ..@@
    ..@@
    ..@@
    ..@@
    ..@@

u+2591:
ltshade:
    @...
    ..@.
    @...
    ..@.
    @...
    ..@.

u+2592:
shade:
    @.@.
    .@.@
    @.@.
    .@.@
    @.@.
    .@.@

u+2593:
dkshade:
    @.@@
    @@@.
    @.@@
    @@@.
    @.@@
    @@@.

u+2594:
uni2594:
    @@@@
    ....
    ....
    ....
    ....
    ....

u+2595:
uni2595:
    ...@
    ...@
    ...@
    ...@
    ...@
    ...@

u+25a0:
filledbox:
    ....
    ....
    @@@.
    @@@.
    @@@.
    ....

u+25a1:
H22073:
    ....
    ....
    @@@.
    @.@.
    @@@.
    ....

u+25c6:
uni25C6:
    ....
    .@..
    @@@.
    @@@.
    .@..
    ....

u+2660:
spade:
    .@..
    @@@.
    @@@.
    .@..
    @@@.
    ....

u+2663:
club:
    ....
    .@..
    @.@.
    .@..
    @@@.
    ....

u+2665:
heart:
    ....
    @.@.
    @@@.
    @@@.
    .@..
    ....

u+2666:
diamond:
    ....
    .@..
    @@@.
    .@..
    ....
    ....

u+2669:
uni2669:
    .@..
    .@..
    .@..
    @@..
    @...
    ....

u+266a:
musicalnote:
    .@..
    .@@.
    .@..
    @@..
    @...
    ....

u+266b:
musicalnotedbl:
    .@@@
    .@.@
    .@.@
    .@.@
    @.@.
    ....

u+266c:
uni266C:
    .@@@
    .@@@
    .@.@
    .@.@
    @.@.
    ....

u+266d:
uni266D:
    @...
    @...
    @@@.
    @.@.
    @@..
    ....

u+266e:
uni266E:
    @...
    @@@.
    @.@.
    @@@.
    ..@.
    ....

u+266f:
uni266F:
    @.@.
    @@@.
    @.@.
    @@@.
    @.@.
    ....

u+fffd:
uniFFFD:
    @@@@
    @..@
    @@.@
    @@@@
    @@.@
    @@@@

